<svg width="13" height="11" viewBox="0 0 13 11" fill="none" xmlns="http://www.w3.org/2000/svg">
<mask id="path-1-inside-1_564_88" fill="white">
<path d="M0 2.5C0 1.11929 1.11929 0 2.5 0H3.5C4.88071 0 6 1.11929 6 2.5C6 3.88071 4.88071 5 3.5 5H2.5C1.11929 5 0 3.88071 0 2.5Z"/>
</mask>
<path d="M0 2.5C0 1.11929 1.11929 0 2.5 0H3.5C4.88071 0 6 1.11929 6 2.5C6 3.88071 4.88071 5 3.5 5H2.5C1.11929 5 0 3.88071 0 2.5Z" fill="#FE3321" fill-opacity="0.8"/>
<path d="M-0.3 2.5C-0.3 0.953603 0.953603 -0.3 2.5 -0.3H3.5C5.0464 -0.3 6.3 0.953603 6.3 2.5H5.7C5.7 1.28497 4.71503 0.3 3.5 0.3H2.5C1.28497 0.3 0.3 1.28497 0.3 2.5H-0.3ZM6.3 2.7C6.3 4.2464 5.0464 5.5 3.5 5.5H2.5C0.953603 5.5 -0.3 4.2464 -0.3 2.7L0.3 2.5C0.3 3.60457 1.28497 4.5 2.5 4.5H3.5C4.71503 4.5 5.7 3.60457 5.7 2.5L6.3 2.7ZM2.5 5.5C0.953603 5.5 -0.3 4.2464 -0.3 2.7V2.5C-0.3 0.953603 0.953603 -0.3 2.5 -0.3V0.3C1.28497 0.3 0.3 1.28497 0.3 2.5C0.3 3.60457 1.28497 4.5 2.5 4.5V5.5ZM3.5 -0.3C5.0464 -0.3 6.3 0.953603 6.3 2.5V2.7C6.3 4.2464 5.0464 5.5 3.5 5.5V4.5C4.71503 4.5 5.7 3.60457 5.7 2.5C5.7 1.28497 4.71503 0.3 3.5 0.3V-0.3Z" fill="black" mask="url(#path-1-inside-1_564_88)"/>
<mask id="path-3-inside-2_564_88" fill="white">
<path d="M0 8.5C0 7.11929 1.11929 6 2.5 6H3.5C4.88071 6 6 7.11929 6 8.5C6 9.88071 4.88071 11 3.5 11H2.5C1.11929 11 0 9.88071 0 8.5Z"/>
</mask>
<path d="M0 8.5C0 7.11929 1.11929 6 2.5 6H3.5C4.88071 6 6 7.11929 6 8.5C6 9.88071 4.88071 11 3.5 11H2.5C1.11929 11 0 9.88071 0 8.5Z" fill="#FE3321" fill-opacity="0.8"/>
<path d="M-0.3 8.5C-0.3 6.9536 0.953603 5.7 2.5 5.7H3.5C5.0464 5.7 6.3 6.9536 6.3 8.5H5.7C5.7 7.28497 4.71503 6.3 3.5 6.3H2.5C1.28497 6.3 0.3 7.28497 0.3 8.5H-0.3ZM6.3 8.7C6.3 10.2464 5.0464 11.5 3.5 11.5H2.5C0.953603 11.5 -0.3 10.2464 -0.3 8.7L0.3 8.5C0.3 9.60457 1.28497 10.5 2.5 10.5H3.5C4.71503 10.5 5.7 9.60457 5.7 8.5L6.3 8.7ZM2.5 11.5C0.953603 11.5 -0.3 10.2464 -0.3 8.7V8.5C-0.3 6.9536 0.953603 5.7 2.5 5.7V6.3C1.28497 6.3 0.3 7.28497 0.3 8.5C0.3 9.60457 1.28497 10.5 2.5 10.5V11.5ZM3.5 5.7C5.0464 5.7 6.3 6.9536 6.3 8.5V8.7C6.3 10.2464 5.0464 11.5 3.5 11.5V10.5C4.71503 10.5 5.7 9.60457 5.7 8.5C5.7 7.28497 4.71503 6.3 3.5 6.3V5.7Z" fill="black" mask="url(#path-3-inside-2_564_88)"/>
<mask id="path-5-inside-3_564_88" fill="white">
<path d="M7 2.5C7 1.11929 8.11929 0 9.5 0H10.5C11.8807 0 13 1.11929 13 2.5C13 3.88071 11.8807 5 10.5 5H9.5C8.11929 5 7 3.88071 7 2.5Z"/>
</mask>
<path d="M7 2.5C7 1.11929 8.11929 0 9.5 0H10.5C11.8807 0 13 1.11929 13 2.5C13 3.88071 11.8807 5 10.5 5H9.5C8.11929 5 7 3.88071 7 2.5Z" fill="#FE3321" fill-opacity="0.8"/>
<path d="M6.7 2.5C6.7 0.953603 7.9536 -0.3 9.5 -0.3H10.5C12.0464 -0.3 13.3 0.953603 13.3 2.5H12.7C12.7 1.28497 11.715 0.3 10.5 0.3H9.5C8.28497 0.3 7.3 1.28497 7.3 2.5H6.7ZM13.3 2.7C13.3 4.2464 12.0464 5.5 10.5 5.5H9.5C7.9536 5.5 6.7 4.2464 6.7 2.7L7.3 2.5C7.3 3.60457 8.28497 4.5 9.5 4.5H10.5C11.715 4.5 12.7 3.60457 12.7 2.5L13.3 2.7ZM9.5 5.5C7.9536 5.5 6.7 4.2464 6.7 2.7V2.5C6.7 0.953603 7.9536 -0.3 9.5 -0.3V0.3C8.28497 0.3 7.3 1.28497 7.3 2.5C7.3 3.60457 8.28497 4.5 9.5 4.5V5.5ZM10.5 -0.3C12.0464 -0.3 13.3 0.953603 13.3 2.5V2.7C13.3 4.2464 12.0464 5.5 10.5 5.5V4.5C11.715 4.5 12.7 3.60457 12.7 2.5C12.7 1.28497 11.715 0.3 10.5 0.3V-0.3Z" fill="black" mask="url(#path-5-inside-3_564_88)"/>
<mask id="path-7-inside-4_564_88" fill="white">
<path d="M7 8.5C7 7.11929 8.11929 6 9.5 6H10.5C11.8807 6 13 7.11929 13 8.5C13 9.88071 11.8807 11 10.5 11H9.5C8.11929 11 7 9.88071 7 8.5Z"/>
</mask>
<path d="M7 8.5C7 7.11929 8.11929 6 9.5 6H10.5C11.8807 6 13 7.11929 13 8.5C13 9.88071 11.8807 11 10.5 11H9.5C8.11929 11 7 9.88071 7 8.5Z" fill="#FE3321" fill-opacity="0.8"/>
<path d="M6.7 8.5C6.7 6.9536 7.9536 5.7 9.5 5.7H10.5C12.0464 5.7 13.3 6.9536 13.3 8.5H12.7C12.7 7.28497 11.715 6.3 10.5 6.3H9.5C8.28497 6.3 7.3 7.28497 7.3 8.5H6.7ZM13.3 8.7C13.3 10.2464 12.0464 11.5 10.5 11.5H9.5C7.9536 11.5 6.7 10.2464 6.7 8.7L7.3 8.5C7.3 9.60457 8.28497 10.5 9.5 10.5H10.5C11.715 10.5 12.7 9.60457 12.7 8.5L13.3 8.7ZM9.5 11.5C7.9536 11.5 6.7 10.2464 6.7 8.7V8.5C6.7 6.9536 7.9536 5.7 9.5 5.7V6.3C8.28497 6.3 7.3 7.28497 7.3 8.5C7.3 9.60457 8.28497 10.5 9.5 10.5V11.5ZM10.5 5.7C12.0464 5.7 13.3 6.9536 13.3 8.5V8.7C13.3 10.2464 12.0464 11.5 10.5 11.5V10.5C11.715 10.5 12.7 9.60457 12.7 8.5C12.7 7.28497 11.715 6.3 10.5 6.3V5.7Z" fill="black" mask="url(#path-7-inside-4_564_88)"/>
</svg>
